PathFileType	4	(X/Y/Z)	C:\Users\Public\Documents\Vicon Data\AADs Machine\Frameless Spring Test\Dec182020\10lbsSpring1.trc
DataRate	CameraRate	NumFrames	NumMarkers	Units	OrigDataRate	OrigDataStartFrame	OrigNumFrames
100.0	100.0	30	9	mm	100.0	1	1041	
Frame#	Time	Heel			MP5			Toe			MMAL			LMAL			Shank			SpringTop			LateralKnee			MedialKnee			
		X1	Y1	Z1	X2	Y2	Z2	X3	Y3	Z3	X4	Y4	Z4	X5	Y5	Z5	X6	Y6	Z6	X7	Y7	Z7	X8	Y8	Z8	X9	Y9	Z9	
1	0	-193.13641	46.469219	-770.62408	-239.53587	37.699085	-598.9295	-172.33051	38.949562	-529.58179	-121.11365	112.09165	-709.56982	-243.31233	117.97569	-703.01099	-169.27962	266.6312	-625.19165	-187.98692	195.61226	-749.79913	-212.24753	473.53516	-669.30579	-133.19722	469.54791	-667.33423
2	0.01	-193.19127	46.417732	-770.63837	-239.5177	37.68697	-598.92395	-172.31078	38.950821	-529.58325	-121.1075	112.04974	-709.58862	-243.27924	117.85187	-703.15179	-169.2496	266.70654	-625.31348	-188.06995	195.53493	-749.90741	-212.29959	473.51706	-669.59186	-133.22324	469.5657	-667.65973
3	0.02	-193.20265	46.469421	-770.57739	-239.55444	37.699417	-598.91534	-172.34286	38.954929	-529.55798	-121.14407	112.13898	-709.53912	-243.34898	117.97458	-703.01202	-169.35284	266.78467	-625.47736	-188.08661	195.57341	-749.9176	-212.33475	473.51138	-669.81256	-133.30086	469.58154	-667.97675
4	0.03	-193.18501	46.513092	-770.5589	-239.54918	37.718765	-598.90509	-172.34024	38.986862	-529.55725	-121.17323	112.14922	-709.52509	-243.37285	118.05402	-702.96149	-169.36015	266.89252	-625.59631	-188.08923	195.55235	-749.97089	-212.29846	473.51218	-670.09344	-133.33223	469.64252	-668.27667
5	0.04	-193.22264	46.438393	-770.59631	-239.52731	37.677891	-598.91992	-172.31801	38.953903	-529.5639	-121.17679	112.06416	-709.59314	-243.30916	117.87028	-703.13226	-169.37897	266.92886	-625.71106	-188.12759	195.43828	-750.12048	-212.34151	473.49496	-670.30457	-133.37624	469.66757	-668.56335
6	0.05	-193.25119	46.443577	-770.58038	-239.5513	37.672337	-598.88776	-172.32855	38.935692	-529.54077	-121.24729	112.09772	-709.55884	-243.36484	117.88289	-703.08972	-169.48164	266.94305	-625.78107	-188.16415	195.41991	-750.13574	-212.3726	473.46567	-670.45172	-133.46936	469.72931	-668.7605
7	0.06	-193.23419	46.567371	-770.53394	-239.5723	37.682011	-598.87427	-172.36343	38.951477	-529.52991	-121.32806	112.19088	-709.48969	-243.40407	118.00922	-702.96155	-169.58702	267.05243	-625.8111	-188.16405	195.55254	-750.12677	-212.40686	473.52252	-670.49591	-133.63155	469.82166	-668.86707
8	0.07	-193.30283	46.614349	-770.47308	-239.56255	37.684711	-598.8642	-172.37453	38.918797	-529.49719	-121.36079	112.24275	-709.43732	-243.39879	118.0051	-702.95898	-169.66234	267.12692	-625.78271	-188.26044	195.57356	-750.05231	-212.38683	473.54703	-670.56732	-133.4641	470.22537	-668.76385
9	0.08	-193.32567	46.602352	-770.44281	-239.52866	37.608276	-598.8457	-172.35419	38.844074	-529.49084	-121.38944	112.27316	-709.44519	-243.40305	117.91771	-703.01465	-169.71924	267.20627	-625.72589	-189.04399	195.16766	-749.31781	-212.41324	473.55984	-670.52899	-133.61128	470.2735	-668.81494
10	0.09	-193.39572	46.752911	-770.34668	-239.59544	37.630554	-598.79303	-172.42477	38.82766	-529.42816	-121.48647	112.43526	-709.3429	-243.48912	118.06185	-702.82617	-169.92053	267.30975	-625.69391	-189.13123	195.32924	-749.24963	-212.495	473.59213	-670.60071	-133.84222	470.33682	-668.8772
11	0.1	-193.39978	46.850914	-770.28406	-239.60666	37.653759	-598.77179	-172.41847	38.844482	-529.40564	-121.50494	112.52386	-709.32898	-243.60402	118.15635	-702.76453	-170.01944	267.41971	-625.7146	-189.23149	195.3932	-749.19977	-212.45715	473.57837	-670.73572	-134.05663	470.3934	-668.9397
12	0.11	-193.43144	46.797089	-770.27582	-239.54225	37.60508	-598.75964	-172.41353	38.779514	-529.42377	-121.58051	112.47926	-709.29602	-243.60606	118.03349	-702.85162	-170.10721	267.43057	-625.77924	-189.30849	195.27367	-749.23334	-212.63924	473.5799	-670.91473	-134.16223	470.40244	-669.08124
13	0.12	-193.43378	46.830803	-770.26141	-239.61145	37.58989	-598.75067	-172.4413	38.777752	-529.39673	-121.6434	112.51904	-709.27502	-243.64803	118.04896	-702.79639	-170.20491	267.49222	-625.84149	-189.36403	195.28229	-749.27759	-212.22464	473.30768	-671.22217	-134.40604	470.332	-669.26807
14	0.13	-193.45207	46.89045	-770.22534	-239.58583	37.641464	-598.74231	-172.47972	38.813984	-529.38062	-121.65253	112.59386	-709.24756	-243.6097	118.12035	-702.70197	-170.26268	267.604	-626.01385	-189.35245	195.33072	-749.32025	-211.2899	472.81558	-672.22437	-134.32848	470.52054	-669.6037
15	0.14	-193.42776	46.885563	-770.23676	-239.57231	37.605213	-598.73938	-172.44373	38.776943	-529.40173	-121.61589	112.56232	-709.26898	-243.66307	118.12374	-702.74695	-170.40797	267.53839	-626.45648	-189.34323	195.22929	-749.42383	-211.78061	473.10913	-672.26672	-134.29968	470.51157	-670.02985
16	0.15	-193.42062	46.845142	-770.24091	-239.57304	37.601402	-598.73486	-172.42696	38.771023	-529.39313	-121.59898	112.52886	-709.28082	-243.60373	118.05811	-702.8338	-170.33496	267.64233	-626.71301	-189.34914	195.11505	-749.5415	-212.24684	473.42517	-672.67578	-134.30194	470.54578	-670.56244
17	0.16	-193.40225	46.844482	-770.24536	-239.58041	37.636066	-598.73627	-172.46291	38.806519	-529.38684	-121.62566	112.51478	-709.26672	-243.61378	118.09438	-702.79999	-170.33899	267.78403	-627.04053	-189.31532	195.02165	-749.66748	-212.22337	473.54031	-673.3479	-134.6149	470.19797	-671.38617
18	0.17	-193.36461	46.80732	-770.26495	-239.54416	37.628929	-598.76215	-172.43011	38.802013	-529.40002	-121.47665	112.49709	-709.35193	-243.4937	118.09412	-702.80023	-170.30223	267.93539	-627.39844	-189.26578	194.82831	-749.8877	-211.83315	473.38281	-674.29669	-134.42767	470.27576	-672.22028
19	0.18	-193.33804	46.748444	-770.29773	-239.52141	37.617233	-598.77832	-172.38182	38.804703	-529.43549	-121.48058	112.36016	-709.36908	-243.40215	118.03275	-702.86267	-170.04042	268.1701	-627.6283	-189.20009	194.64539	-750.1593	-209.97401	472.24796	-676.10583	-134.14781	470.43066	-673.05499
20	0.19	-193.32811	46.676952	-770.34485	-239.55446	37.612095	-598.79639	-172.4359	38.816704	-529.44	-121.42083	112.29268	-709.45221	-243.35196	117.95027	-702.95715	-169.96761	268.29083	-628.21204	-189.16473	194.3725	-750.44336	-209.41328	471.88989	-677.44476	-134.00159	470.41064	-674.22363
21	0.2	-193.31209	46.713909	-770.33472	-239.51463	37.691547	-598.78601	-172.41797	38.872345	-529.42786	-121.39334	112.27636	-709.42639	-243.33052	118.06332	-702.93201	-169.83482	268.52618	-628.8526	-189.07285	194.23322	-750.74225	-211.33519	473.51208	-677.65692	-133.65381	470.58493	-675.61292
22	0.21	-193.2523	46.665173	-770.36786	-239.52759	37.677986	-598.81323	-172.37236	38.87701	-529.45898	-121.30113	112.16751	-709.4679	-243.17221	117.97862	-703.0614	-169.63799	268.77509	-629.48871	-188.97807	194.01825	-751.11035	-209.09534	472.09976	-680.17493	-133.4978	470.49969	-676.94818
23	0.22	-193.20508	46.557262	-770.42725	-239.53339	37.657803	-598.83337	-172.39749	38.873219	-529.48145	-121.31652	112.03448	-709.53064	-243.10887	117.87804	-703.16632	-169.54535	269.01526	-630.23138	-188.95029	193.73758	-751.51056	-208.99716	472.1113	-681.64612	-133.54059	470.35541	-678.49634
24	0.23	-193.18341	46.537666	-770.48059	-239.5444	37.718952	-598.84009	-172.40393	38.954983	-529.48767	-121.27321	112.00272	-709.59735	-243.11243	117.91936	-703.17645	-169.59599	269.18661	-631.17828	-188.96782	193.5184	-751.88	-208.79967	471.99808	-683.38477	-133.95905	470.31332	-680.27844
25	0.24	-193.07697	46.458511	-770.55615	-239.53511	37.75481	-598.84027	-172.3504	39.019962	-529.50677	-121.18026	111.94392	-709.6485	-243.07259	117.85356	-703.29797	-169.57082	269.38672	-631.98492	-188.95932	193.30118	-752.35114	-208.79796	472.01114	-685.09296	-133.43956	470.51581	-681.98004
26	0.25	-193.08775	46.41003	-770.58759	-239.50272	37.684326	-598.86572	-172.32565	38.929123	-529.52765	-121.15783	111.82249	-709.73584	-243.09875	117.72878	-703.89874	-169.4001	269.86301	-632.53967	-188.97336	192.99358	-752.78931	-209.32231	472.50552	-686.5556	-133.44756	470.37836	-683.86499
27	0.26	-193.10732	46.444763	-770.573	-239.52357	37.707993	-598.86639	-172.35571	38.97628	-529.52435	-121.15621	111.84184	-709.77722	-243.05602	117.82552	-703.39429	-169.3755	270.2233	-633.37347	-189.01897	192.78188	-753.19788	-209.46031	472.57529	-688.36188	-133.75455	470.15872	-685.50519
28	0.27	-193.02818	46.45755	-770.56317	-239.49034	37.777996	-598.85779	-172.32645	39.017857	-529.51746	-121.05967	111.88389	-709.77661	-242.97929	117.84866	-703.45892	-169.30103	270.55167	-634.06531	-188.93805	192.60216	-753.65814	-208.69328	472.16507	-690.29913	-133.39987	470.41537	-687.04443
29	0.28	-193.00604	46.405933	-770.60205	-239.42508	37.740524	-598.86493	-172.26663	38.952736	-529.54224	-121.05396	111.76009	-709.80756	-242.93382	117.77235	-703.5199	-169.38493	270.61539	-634.95251	-188.98445	192.30739	-754.0318	-208.63472	472.32272	-691.36438	-133.82913	469.97388	-688.48438
30	0.29	-193.0303	46.458637	-770.57837	-239.48224	37.734222	-598.87659	-172.30743	38.968948	-529.53723	-121.07413	111.84314	-709.85553	-242.98721	117.85301	-703.42157	-169.28993	271.04767	-635.18597	-189.01273	192.23183	-754.28387	-208.92351	472.2258	-692.84436	-133.60228	470.3327	-689.63531
